Coordinates
version=1
nRows=17
nColumns=34
inDegrees=yes

Units are S.I. units (second, meters, Newtons, ...)
If the header above contains a line with 'inDegrees', this indicates whether rotational values are in degrees (yes) or radians (no).

endheader
time	pelvis_tilt	pelvis_list	pelvis_rotation	pelvis_tx	pelvis_ty	pelvis_tz	hip_flexion_r	hip_adduction_r	hip_rotation_r	knee_angle_r	ankle_angle_r	subtalar_angle_r	mtp_angle_r	hip_flexion_l	hip_adduction_l	hip_rotation_l	knee_angle_l	ankle_angle_l	subtalar_angle_l	mtp_angle_l	lumbar_extension	lumbar_bending	lumbar_rotation	arm_flex_r	arm_add_r	arm_rot_r	elbow_flex_r	pro_sup_r	arm_flex_l	arm_add_l	arm_rot_l	elbow_flex_l	pro_sup_l
     10.86666670	    -15.75877880	     -0.03247942	   -360.00000000	      0.06917184	      0.55809063	     -0.09396649	     82.58520261	    -25.64470236	     -3.72569462	    118.31660240	     50.00000000	      2.60234284	      0.00000000	     87.47760982	     10.61851207	      8.92447849	    113.07903154	     50.00000000	      4.80460995	      0.00000000	    -32.01024932	      7.24610227	    -13.29932264	     72.55229503	    -35.91212977	     87.38975700	     66.80937027	    119.74817918	     74.41077488	    -36.33710940	     85.41852944	     65.90378121	    119.74817918
     10.88333330	    -15.72594675	      0.35387698	   -360.00000000	      0.06964960	      0.55190759	     -0.09333334	     83.43190308	    -25.88053458	     -2.73223423	    119.37791124	     50.00000000	      2.73634715	      0.00000000	     88.08309314	     10.89350587	      8.68094972	    113.95299778	     50.00000000	      4.60300819	      0.00000000	    -31.93956411	      6.94726481	    -13.61736588	     73.52854551	    -36.10106637	     88.94845689	     67.79622709	    119.74817918	     74.84923428	    -36.62292667	     86.09902838	     66.85949189	    119.74817918
     10.90000000	    -15.64175376	      0.42676762	   -360.00000000	      0.07008534	      0.54633347	     -0.09245081	     83.92550250	    -26.01682773	     -2.27142186	    120.30001361	     50.00000000	      2.71441812	      0.00000000	     88.58070821	     10.99159126	      8.75107124	    114.83632664	     50.00000000	      4.51668092	      0.00000000	    -32.04651663	      6.94725980	    -13.68249781	     74.04496464	    -36.51263867	     89.36801715	     68.98389751	    119.74817918	     75.14371057	    -36.93264916	     86.29796601	     68.04328748	    119.74817918
     10.91666670	    -15.65745085	      0.79566002	   -360.00000000	      0.07035495	      0.54082759	     -0.09200131	     84.79026029	    -26.22529674	     -1.32074902	    121.22725482	     50.00000000	      2.88389524	      0.00000000	     89.17915540	     11.17878030	      8.47878932	    115.59906554	     50.00000000	      4.37764045	      0.00000000	    -31.99379814	      6.69003845	    -13.94222195	     74.95875429	    -36.77735998	     90.67819410	     69.97454732	    119.74817918	     75.59939855	    -37.21099897	     86.90147414	     68.95848977	    119.74817918
     10.93333330	    -15.58302657	      0.86118303	   -360.00000000	      0.07058101	      0.53600197	     -0.09143607	     85.28055952	    -26.32786099	     -0.89851365	    122.01434151	     50.00000000	      2.91625797	      0.00000000	     89.63531175	     11.25331307	      8.50561170	    116.35452756	     50.00000000	      4.34051259	      0.00000000	    -32.11783314	      6.73543607	    -13.96179627	     75.47375835	    -37.15557355	     91.06772221	     70.98878564	    119.74817918	     75.95892759	    -37.47022248	     87.11134186	     70.01800973	    119.74817918
     10.95000000	    -15.56171023	      1.00211527	   -360.00000000	      0.07072836	      0.53141300	     -0.09087224	     85.85784848	    -26.41326602	     -0.35561832	    122.77318107	     50.00000000	      3.00325030	      0.00000000	     90.14145835	     11.31616970	      8.44510311	    117.04943276	     50.00000000	      4.32806861	      0.00000000	    -32.17905028	      6.69243540	    -13.97414683	     76.21325719	    -37.50874244	     91.84007754	     71.97010200	    119.74817918	     76.41703664	    -37.68980350	     87.54840520	     70.94559564	    119.74817918
     10.96666670	    -15.50323708	      1.16307491	   -360.00000000	      0.07087853	      0.52713680	     -0.09038367	     86.40121070	    -26.49383696	      0.20224874	    123.46254027	     50.00000000	      3.10578231	      0.00000000	     90.58663510	     11.37836811	      8.36617380	    117.67938274	     50.00000000	      4.29454435	      0.00000000	    -32.21997562	      6.63593875	    -14.00222516	     76.94119139	    -37.79422282	     92.68191190	     72.75262607	    119.74817918	     76.86876039	    -37.86314736	     88.05868263	     71.71229109	    119.74817918
     10.98333330	    -15.45286827	      1.30413485	   -360.00000000	      0.07117884	      0.52340068	     -0.09002467	     86.87696073	    -26.57141430	      0.74196799	    124.10685407	     50.00000000	      3.20508573	      0.00000000	     90.97259251	     11.44905518	      8.32560440	    118.27614075	     50.00000000	      4.27354211	      0.00000000	    -32.27232000	      6.61336700	    -14.02790657	     77.61204502	    -38.02381313	     93.45728114	     73.42626203	    119.74817918	     77.27896010	    -37.99540337	     88.56293172	     72.41132600	    119.74817918
     11.00000000	    -15.38451548	      1.43302773	   -360.00000000	      0.07136208	      0.52005890	     -0.08967971	     87.31674343	    -26.60244638	      1.24142972	    124.68698845	     50.00000000	      3.29755418	      0.00000000	     91.30916348	     11.49757028	      8.24156485	    118.81224147	     50.00000000	      4.26350969	      0.00000000	    -32.33817010	      6.59344742	    -14.05878321	     78.26810529	    -38.22833828	     94.20600458	     74.05542146	    119.74817918	     77.67779768	    -38.13725873	     89.04556001	     73.02471617	    119.74817918
     11.01666670	    -15.30195507	      1.54979682	   -360.00000000	      0.07153756	      0.51721275	     -0.08942118	     87.66113765	    -26.62750678	      1.69186156	    125.19628673	     50.00000000	      3.37020950	      0.00000000	     91.57749147	     11.56738199	      8.17172765	    119.26237747	     50.00000000	      4.25877218	      0.00000000	    -32.42141888	      6.59395716	    -14.08261849	     78.83661756	    -38.39732889	     94.84312034	     74.62050871	    119.74817918	     77.98495607	    -38.25094010	     89.45375301	     73.58770152	    119.74817918
     11.03333330	    -15.21089177	      1.65461555	   -360.00000000	      0.07160463	      0.51486700	     -0.08920434	     87.93613167	    -26.61254414	      2.09756309	    125.59860816	     50.00000000	      3.42890906	      0.00000000	     91.77258176	     11.62979133	      8.08968244	    119.62012832	     50.00000000	      4.25320185	      0.00000000	    -32.50928498	      6.62740994	    -14.09476188	     79.33791523	    -38.51551930	     95.37264229	     75.11906154	    119.74817918	     78.23173641	    -38.36126649	     89.76099787	     74.05563427	    119.74817918
     11.05000000	    -15.13547598	      1.65259731	   -360.00000000	      0.07169807	      0.51344827	     -0.08870385	     88.00684428	    -26.54920683	      2.25148399	    125.86007766	     50.00000000	      3.41723260	      0.00000000	     91.86019530	     11.63452172	      8.12609189	    119.86617735	     50.00000000	      4.24059241	      0.00000000	    -32.61427539	      6.71663914	    -14.03023140	     79.47173259	    -38.45126676	     95.35048242	     75.15724856	    119.74817918	     78.28482918	    -38.31921161	     89.76117533	     74.10717484	    119.74817918
     11.06666670	    -15.06618620	      1.79307789	   -360.00000000	      0.07188532	      0.51241917	     -0.08853001	     88.16265790	    -26.49781019	      2.60075132	    126.03038561	     50.00000000	      3.40933840	      0.00000000	     91.90982928	     11.74679927	      8.00452306	    120.02621009	     50.00000000	      4.25162011	      0.00000000	    -32.72816927	      6.73069332	    -14.06145367	     80.01454953	    -38.63104453	     95.91370202	     75.89720368	    119.74817918	     78.46121657	    -38.47934576	     89.96186088	     74.72057555	    119.74817918
     11.08333330	    -15.07251561	      1.82918956	   -360.00000000	      0.07221362	      0.51233289	     -0.08797785	     88.17348666	    -26.48203850	      2.60147140	    126.03663085	     50.00000000	      3.41073361	      0.00000000	     91.90528608	     11.74854729	      8.00564755	    120.03657299	     50.00000000	      4.25077326	      0.00000000	    -32.74412520	      6.76077915	    -14.05480158	     80.01746824	    -38.61789236	     95.91415131	     75.90105539	    119.74817918	     78.45896225	    -38.46795477	     89.96343843	     74.72517269	    119.74817918
     11.10000000	    -14.93847597	      1.95996491	   -360.00000000	      0.07253314	      0.51305348	     -0.08810635	     88.10137643	    -26.33611877	      2.92218931	    125.97151917	     50.00000000	      3.27247725	      0.00000000	     91.70468811	     11.89925504	      7.87180678	    119.93682546	     50.00000000	      4.07296660	      0.00000000	    -32.93383953	      6.82326480	    -14.10628253	     80.45303063	    -38.46938566	     96.33359495	     76.17031948	    119.74817918	     78.39532147	    -38.41342920	     89.83015994	     74.80849981	    119.74817918
     11.11666670	    -14.98099518	      2.01247666	   -360.00000000	      0.07292842	      0.51416472	     -0.08795327	     88.06164354	    -26.22647339	      2.92920062	    125.78281267	     50.00000000	      3.29302764	      0.00000000	     91.61155732	     11.93208254	      7.83295716	    119.75417238	     50.00000000	      4.07825882	      0.00000000	    -32.87713392	      6.88345234	    -14.09486757	     80.42479443	    -38.38462203	     96.34502501	     76.18594361	    119.74817918	     78.30840502	    -38.32982930	     89.84095247	     74.83422234	    119.74817918
     11.13333330	    -14.90203277	      2.08673552	   -360.00000000	      0.07333944	      0.51665310	     -0.08787779	     87.74792906	    -26.07513310	      2.84059216	    125.41011078	     50.00000000	      3.05766900	      0.00000000	     91.24185866	     12.00408090	      7.76174306	    119.38247547	     50.00000000	      3.87124982	      0.00000000	    -32.94590173	      6.92565760	    -14.10408612	     80.28139762	    -38.06321784	     96.17399463	     75.72470178	    119.74817918	     77.86603293	    -38.13029642	     89.25926430	     74.32820591	    119.74817918
